<svg xmlns="http://www.w3.org/2000/svg" viewBox="0 0 777.27 221">
    <path d="M746.5,78.43c9.53,0,17.33,2.6,23,8.23s8.23,13.87,8.23,25.13v43.77H755.6v-40.3c0-6.07-1.3-10.4-3.47-13.43-2.6-3-6.07-4.33-10.83-4.33-5.2,0-9.53,1.3-12.57,4.77-2.6,3.47-4.33,8.23-4.33,15.17v38.13H702.3v-40.3c0-12.13-4.77-17.77-14.3-17.77-5.2,0-9.1,1.3-12.13,4.77s-4.77,8.23-4.77,15.17v38.13H649V79.3h21.23V88a35,35,0,0,1,10.4-7.37c3.9-1.73,8.67-2.17,13.43-2.17,5.63,0,10.4.87,14.73,3a26.48,26.48,0,0,1,10.4,9.1,30.56,30.56,0,0,1,11.7-9.1,37.14,37.14,0,0,1,15.6-3Zm-333.67-3H380.77V56.33H468.3V75.4H436.23v81h-23.4v-81Zm-156-19.07h23v99.23h-23V56.33Zm91,22.1c9.53,0,17.33,2.6,23,8.23s8.67,14.3,8.67,25.13v43.77h-22.1v-40.3c0-6.07-1.3-10.4-3.9-13.43S347,97.5,342.2,97.5c-5.63,0-10.4,1.73-13.43,4.77q-5.2,5.2-5.2,15.6v37.7H301.9V79.3h20.8v9.1A26.84,26.84,0,0,1,333.53,81a38.17,38.17,0,0,1,14.3-2.6Zm243.1,63.27a19,19,0,0,0,10-2.6,12.25,12.25,0,0,0,6.07-7.8v-7.8H592.23c-9.1,0-13.87,3-13.87,9.1a7.64,7.64,0,0,0,3.47,6.5Q585.08,141.7,590.93,141.7Zm1.73-63.27c11.7,0,20.8,2.6,27.3,8.23,6.07,5.63,9.1,13.87,9.1,25.57v43.33H608.7V146q-6.5,10.4-23.4,10.4c-5.63,0-10.83-.87-15.17-3a22.39,22.39,0,0,1-10-7.8,24,24,0,0,1-3-12.13c0-6.93,2.6-12.57,7.8-16.47,5.2-4.33,13.43-6.07,24.7-6.07H607c0-5.2-1.3-8.67-4.33-11.27q-3.9-3.9-13-3.9A39.15,39.15,0,0,0,577.5,97.5a36.22,36.22,0,0,0-10,5.2l-7.8-15.17A49,49,0,0,1,574.9,80.6,60.55,60.55,0,0,1,592.67,78.43ZM509.9,94.9c-5.2,0-9.1,1.3-12.57,4.33-3.47,2.6-5.63,6.5-6.07,11.7h37.27c-.87-5.2-2.6-8.67-6.07-11.7A18.51,18.51,0,0,0,509.9,94.9Zm39.43,23a50.34,50.34,0,0,1-.43,5.63H491.27c1.3,4.77,3.47,8.67,7.37,11.27a25.39,25.39,0,0,0,14.3,4.33,26.76,26.76,0,0,0,10.83-2.17c3-.87,5.63-3,8.67-5.2l11.7,12.57c-7.37,8.23-17.77,12.13-31.63,12.13A52.28,52.28,0,0,1,490,151.67a40.6,40.6,0,0,1-15.6-13.87,42.48,42.48,0,0,1,0-40.73A41.23,41.23,0,0,1,489.1,83.2c6.07-3.47,13-4.77,20.8-4.77,7.37,0,13.87,1.3,19.93,4.77a35.6,35.6,0,0,1,14.3,13.43C547.6,102.7,549.33,109.63,549.33,117.87Z" transform="translate(-0.43 0)" style="fill:#fff;"/>
    <path d="M9.83,68.9c6.5-20.8,29-43.33,44.63-52.43C82.63.43,100.83.43,137.67,0H225.2c0,8.23.43,17.33.43,27.3h.43V70.63c.43-10,0-20.37,0-30.77.87,41.17.87,89.27-10,114.4C199.2,192.4,158,221,116,221H1.6l-.43-23C2,155.57-4.47,105.73,9.83,68.9Zm215.8,5.63a12,12,0,0,1,.43-3.9Z" transform="translate(-0.43 0)" style="fill:#13985f"/>
    <path d="M194,120.9a38.43,38.43,0,0,0-.43,5.63H140.7a13.88,13.88,0,0,0,6.93,10,21.06,21.06,0,0,0,13,3.9c3.47,0,6.93-.43,9.53-1.73a15.59,15.59,0,0,0,7.8-5.2l10.83,11.7c-6.5,7.8-16,11.27-28.6,11.27-7.8,0-14.73-1.3-20.8-4.33a34.58,34.58,0,0,1-14.3-13,36.75,36.75,0,0,1-4.77-18.2,38.41,38.41,0,0,1,4.77-18.63,35.14,35.14,0,0,1,13.43-13,39.85,39.85,0,0,1,19.07-4.33,38.14,38.14,0,0,1,18.63,4.33,36,36,0,0,1,13,12.57A38.87,38.87,0,0,1,194,120.9Zm-36.4-20.8a17,17,0,0,0-11.27,3.9c-3.47,2.6-5.2,6.07-6.07,10.4h34.67c-.87-4.33-2.6-7.8-5.63-10.4a18.15,18.15,0,0,0-11.7-3.9Z" transform="translate(-0.43 0)" style="fill:#fff"/>
    <path d="M81.33,82.77a37.61,37.61,0,0,1,18.2,4.33,31.33,31.33,0,0,1,13,13,42.27,42.27,0,0,1,0,39,31.33,31.33,0,0,1-13,13,37.61,37.61,0,0,1-18.2,4.33c-10,0-17.33-3-22.53-9.1v8.23H38.87V56.33h20.8v35.1C64.87,85.37,72.23,82.77,81.33,82.77Zm-3.47,56.77a16.48,16.48,0,0,0,13-5.63q5.2-5.2,5.2-14.3t-5.2-14.3a16.48,16.48,0,0,0-13-5.63c-5.63,0-10,1.73-13.43,5.63-3.47,3.47-4.77,8.23-4.77,14.3s1.3,10.83,4.77,14.3C67.9,137.8,72.23,139.53,77.87,139.53Z" transform="translate(-0.43 0)" style="fill:#fff"/>
</svg>