<?xml version="1.0" standalone="no"?>
<!DOCTYPE svg PUBLIC "-//W3C//DTD SVG 20010904//EN"
 "http://www.w3.org/TR/2001/REC-SVG-20010904/DTD/svg10.dtd">
<svg version="1.0" xmlns="http://www.w3.org/2000/svg"
 width="904.000000pt" height="904.000000pt" viewBox="0 0 904.000000 904.000000"
 preserveAspectRatio="xMidYMid meet">
<metadata>
Created by potrace 1.14, written by Peter Selinger 2001-2017
</metadata>
<g transform="translate(0.000000,904.000000) scale(0.100000,-0.100000)"
fill="#000000" stroke="none">
<path d="M4747 8913 c-1 -1 -76 -4 -167 -7 -91 -3 -219 -8 -285 -12 -66 -4
-132 -7 -147 -8 -16 0 -28 -3 -28 -6 0 -3 -21 -5 -48 -6 -53 -1 -182 -13 -215
-20 -12 -3 -40 -7 -62 -9 -22 -2 -50 -6 -61 -9 -12 -2 -37 -7 -55 -10 -33 -5
-216 -43 -251 -52 -10 -2 -28 -7 -40 -10 -13 -3 -30 -7 -38 -9 -8 -2 -16 -4
-17 -5 -3 -3 -7 -4 -48 -14 -16 -4 -73 -22 -125 -39 -52 -17 -97 -32 -100 -32
-3 -1 -14 -5 -25 -10 -11 -4 -59 -23 -107 -41 -124 -48 -346 -152 -375 -176
-7 -6 -13 -8 -13 -5 0 5 -82 -38 -140 -73 -8 -5 -31 -17 -50 -27 -19 -9 -37
-20 -40 -23 -3 -3 -59 -37 -125 -75 -162 -92 -356 -219 -460 -302 -6 -4 -44
-35 -85 -67 -146 -116 -265 -222 -409 -367 -115 -115 -220 -230 -296 -324 -16
-20 -35 -42 -40 -49 -6 -6 -24 -29 -40 -51 -16 -22 -34 -44 -40 -50 -6 -5 -53
-75 -105 -155 -118 -180 -111 -169 -161 -265 -23 -44 -48 -91 -55 -105 -11
-21 -33 -72 -39 -90 -4 -12 -26 -67 -34 -85 -20 -45 -146 -429 -167 -507 -1
-5 -2 -9 -4 -10 -1 -2 -3 -10 -5 -18 -1 -8 -12 -51 -23 -95 -25 -97 -62 -260
-67 -295 -6 -42 -15 -94 -20 -110 -2 -8 -7 -34 -10 -58 -3 -24 -7 -53 -10 -65
-4 -21 -12 -70 -20 -132 -2 -16 -7 -50 -10 -75 -4 -25 -8 -61 -10 -80 -3 -19
-7 -57 -10 -85 -3 -27 -8 -79 -10 -115 -3 -36 -8 -83 -10 -105 -3 -22 -7 -85
-10 -140 -4 -55 -8 -127 -10 -160 -26 -390 -23 -1082 10 -2080 6 -196 13 -457
20 -710 2 -104 4 -454 5 -777 0 -552 1 -587 17 -587 27 -1 81 -1 96 0 6 0 37
0 67 0 54 0 73 0 128 -1 15 -1 48 0 75 2 26 2 47 0 47 -4 0 -4 10 -4 23 0 12
5 33 7 47 5 23 -3 62 -4 93 -2 6 0 37 0 67 0 54 0 73 0 128 -1 15 -1 48 0 75
2 26 2 47 0 47 -4 0 -4 10 -4 22 0 13 5 34 7 48 5 23 -3 62 -4 93 -2 6 0 37 0
67 0 54 0 73 0 128 -1 15 -1 48 0 75 2 26 2 47 0 47 -4 0 -4 10 -4 22 0 13 5
34 7 48 5 23 -3 62 -4 93 -2 6 0 37 0 67 0 54 0 73 0 128 -1 15 -1 48 0 75 2
26 2 47 0 47 -4 0 -4 10 -4 23 0 12 5 33 7 47 5 23 -3 62 -4 93 -2 6 0 37 0
67 0 30 0 64 0 75 0 11 0 32 -1 47 -4 14 -2 32 -1 38 3 6 4 31 4 56 0 24 -4
47 -4 49 0 3 5 20 4 39 0 19 -4 37 -6 39 -4 8 8 67 11 67 3 0 -5 10 -5 23 -1
12 5 33 7 47 5 23 -3 62 -4 93 -2 6 0 37 0 67 0 54 0 73 0 128 -1 15 -1 48 0
75 2 26 2 47 0 47 -4 0 -4 10 -4 23 0 12 5 33 7 47 5 23 -3 62 -4 93 -2 6 0
37 0 67 0 54 0 73 0 128 -1 15 -1 48 0 75 2 26 2 47 0 47 -4 0 -4 10 -4 23 0
12 5 33 7 47 5 23 -3 62 -4 93 -2 6 0 37 0 67 0 54 0 73 0 128 -1 15 -1 48 0
75 2 26 2 47 0 47 -4 0 -4 10 -4 23 0 12 5 33 7 47 5 23 -3 62 -4 93 -2 6 0
37 0 67 0 30 0 64 0 75 0 11 0 32 -1 47 -4 14 -2 32 -1 38 3 6 4 31 4 56 0 24
-4 47 -4 49 0 2 3 28 4 57 0 30 -3 65 -3 79 0 13 4 38 3 56 -1 18 -4 35 -4 38
-1 3 3 38 7 78 8 79 2 202 11 257 19 19 3 55 8 80 11 25 3 59 8 75 11 17 3 44
7 60 9 17 1 41 5 55 8 14 4 36 8 50 11 52 10 70 14 176 39 60 15 147 38 194
52 47 15 90 27 95 28 18 4 60 17 80 26 11 5 65 25 120 45 176 64 478 203 620
285 22 13 56 32 75 42 19 10 47 26 62 36 14 9 48 30 75 46 72 44 238 159 241
168 2 4 8 8 13 8 11 0 138 96 157 119 6 8 12 11 12 7 0 -4 6 -1 13 6 8 7 33
29 57 48 202 164 457 419 623 624 117 143 120 147 234 312 75 110 81 119 119
184 15 25 34 56 43 70 9 14 25 43 36 65 11 22 23 42 26 45 21 16 219 455 235
520 2 8 13 42 24 74 11 33 20 63 20 67 0 4 5 20 11 36 7 15 13 35 14 43 2 8
13 56 25 105 12 50 24 98 26 107 8 36 14 64 21 98 4 19 8 37 8 40 1 3 5 25 9
50 5 25 10 54 13 65 2 11 6 34 8 50 2 17 6 44 9 60 3 17 10 66 16 110 6 44 13
91 15 105 2 14 6 43 9 65 3 22 8 60 10 85 3 25 7 65 11 90 3 25 8 74 11 110 2
36 6 81 8 100 2 19 7 78 10 130 4 52 9 120 11 150 33 412 46 1325 30 2165 -12
653 -13 717 -18 722 -3 3 -2 15 3 28 5 13 6 26 3 29 -4 3 -7 68 -9 143 -1 76
-5 293 -9 483 -4 190 -8 409 -8 488 0 122 -3 142 -16 143 -24 2 -4212 4 -4214
2z"/>
</g>
</svg>
