<?xml version="1.0" encoding="utf-8"?>
<!-- Generator: Adobe Illustrator 23.0.2, SVG Export Plug-In . SVG Version: 6.00 Build 0)  -->
<svg version="1.1" id="Слой_1" xmlns="http://www.w3.org/2000/svg" xmlns:xlink="http://www.w3.org/1999/xlink" x="0px" y="0px"
	 viewBox="0 0 226 221" style="enable-background:new 0 0 226 221;" xml:space="preserve">
<style type="text/css">
	.st0{fill-rule:evenodd;clip-rule:evenodd;fill:#13985F;}
	.st1{fill-rule:evenodd;clip-rule:evenodd;fill:#FFFFFF;}
</style>
<g id="Слой_x0020_1">
	<path class="st0" d="M9.2,69.3c6.1-21.4,29-42.8,45.8-51.9C82.5,0.6,100.8,0.6,137.4,0.6H200h24.4c0,42.8,6.1,120.6-9.2,154.2
		c-16.8,38.2-58,65.7-99.3,65.7H76.4H1.5v-22.9C1.5,156.3-4.6,105.9,9.2,69.3L9.2,69.3z"/>
	<path class="st1" d="M77.9,139.5c4.6,0,9.2-1.5,12.2-4.6c3.1-4.6,6.1-9.2,6.1-15.3s-3.1-10.7-6.1-13.7c-3.1-4.6-7.6-6.1-12.2-6.1
		c-6.1,0-10.7,1.5-13.7,6.1c-3.1,3.1-4.6,7.6-4.6,13.7c0,6.1,1.5,10.7,4.6,15.3C67.2,138,71.8,139.5,77.9,139.5z M80.9,83
		c6.1,0,12.2,1.5,18.3,4.6c4.6,3.1,9.2,7.6,12.2,12.2c3.1,6.1,4.6,12.2,4.6,19.9s-1.5,13.7-4.6,19.9c-3.1,4.6-7.6,9.2-12.2,12.2
		c-6.1,3.1-12.2,4.6-18.3,4.6c-10.7,0-16.8-3.1-22.9-9.2v9.2H38.2V57.1h21.4v35.1C64.1,86.1,71.8,83,80.9,83z M157.3,99.8
		c-4.6,0-9.2,1.5-12.2,4.6c-3.1,3.1-4.6,6.1-4.6,10.7h33.6c0-4.6-3.1-7.6-6.1-10.7C164.9,101.3,161.9,99.8,157.3,99.8z M192.4,121.2
		c0,0,0,1.5,0,6.1h-51.9c0,3.1,3.1,7.6,6.1,9.2c3.1,3.1,7.6,4.6,13.7,4.6c3.1,0,6.1-1.5,9.2-1.5c3.1-1.5,6.1-3.1,7.6-6.1l10.7,12.2
		c-6.1,7.6-15.3,10.7-29,10.7c-7.6,0-13.7-1.5-19.9-4.6c-6.1-3.1-10.7-7.6-13.7-12.2c-4.6-6.1-6.1-12.2-6.1-18.3
		c0-7.6,1.5-13.7,6.1-18.3c3.1-6.1,7.6-10.7,12.2-13.7c6.1-3.1,12.2-4.6,19.9-4.6c6.1,0,12.2,1.5,18.3,4.6
		c4.6,3.1,9.2,7.6,12.2,13.7C190.9,107.4,192.4,113.6,192.4,121.2z"/>
</g>
</svg>
